<?xml version="1.0" encoding="UTF-8" standalone="no"?>
<!-- Created with Inkscape (http://www.inkscape.org/) -->

<svg
   width="512"
   height="512"
   viewBox="0 0 135.46666 135.46667"
   version="1.1"
   id="svg5"
   xml:space="preserve"
   xmlns="http://www.w3.org/2000/svg"
   xmlns:svg="http://www.w3.org/2000/svg"><defs
     id="defs2" /><g
     id="layer1"><g
       style="display:none;fill:#ffffff"
       id="g6420"
       transform="matrix(-5.4418522,0,0,5.4418522,133.0684,2.441513)"><path
         id="path6418"
         style="display:inline;fill:#ffffff"
         d="m 12.367884,3.0034662 a 8.994,8.994 0 0 1 8.632155,8.9965208 8.937,8.937 0 0 1 -1.400012,4.799999 l 1.400012,4.200035 -4.200035,-1.400012 A 8.994,8.994 0 1 1 12.367884,3.0034662 Z m 0.735663,4.5513911 c -0.03526,-6.942e-4 -0.07147,0.00673 -0.106166,0.023835 -1.207227,0.5936164 -2.054162,1.7999094 -2.308315,2.8618427 -0.333242,-0.312359 -0.460329,-0.7806697 -0.476325,-1.2027772 0,-0.2030559 -0.2541192,-0.2967767 -0.3967471,-0.1559261 C 8.7198473,10.253069 7.035858,13.798785 9.6249321,15.798241 a 3.8927236,3.8927236 0 0 0 1.3342989,0.640703 c 0.03199,0.01555 0.06355,-0.04708 0.032,-0.07863 -1.5884576,-1.374293 -0.603847,-3.123684 -0.032,-3.6391 0.07953,-0.06265 0.174633,4.7e-5 0.174633,0.07825 0,0.234159 0.06348,0.499866 0.238542,0.671375 0.111081,-0.562069 0.523923,-1.249465 1.127759,-1.561825 0.06309,-0.0471 0.143011,0.01553 0.143011,0.09373 -0.03199,0.781121 0.406571,1.36369 0.714487,1.717371 0.431883,0.495421 1.016675,1.594252 -0.04748,2.609532 -0.03199,0.0311 -6.2e-5,0.09332 0.04748,0.07777 a 3.2257931,3.2257931 0 0 0 1.350347,-0.671375 c 1.572462,-1.296537 1.096133,-3.280471 0.365221,-4.357956 -0.825998,-1.202784 -1.773734,-2.1278546 -1.742632,-3.580793 0.0125,-0.1343385 -0.101112,-0.2399567 -0.227052,-0.2424357 z" /></g><rect
       style="fill:#5260ff;fill-opacity:1;stroke-width:4.73492;paint-order:stroke fill markers"
       id="rect409"
       width="135.46666"
       height="135.46666"
       x="9.5049536e-06"
       y="0"
       ry="28.148916" /><path
       id="path411"
       style="fill:#434ed3;fill-opacity:1;stroke-width:4.73492;paint-order:stroke fill markers"
       d="m 57.130395,27.922279 -18.17357,16.15715 -4.23902,46.19718 -15.92859,26.443891 18.74599,18.74612 h 41.10214 28.680675 c 15.59448,0 28.14867,-12.55419 28.14867,-28.14867 V 66.207799 l -33.34577,-33.34577 z" /><g
       style="display:inline;fill:#ffffff"
       id="g415"
       transform="matrix(-5.4418522,0,0,5.4418522,133.06824,2.4415387)"><path
         id="path413"
         style="fill:#ffffff"
         d="m 11.930765,2.9965271 c 0.145768,-0.00123 0.291544,0.00108 0.4372,0.00693 4.826335,0.1943778 8.637326,4.1662764 8.63206,8.9965209 -4.43e-4,1.700605 -0.48609,3.365782 -1.399916,4.799999 L 21.000025,21.000012 16.800085,19.6 C 11.748694,22.782316 5.055652,20.250201 3.3755258,14.521284 1.6953997,8.7923674 5.9607408,3.046474 11.930765,2.9965271 Z m 1.498961,2.7582404 c -0.08378,-8.725e-4 -0.169971,0.015552 -0.254021,0.044632 h -9.5e-5 c -0.04862,0.016833 -0.118343,0.041549 -0.206161,0.07445 -0.175583,0.065773 -0.424023,0.1642179 -0.721135,0.2967535 -0.59276,0.2644152 -1.386634,0.667929 -2.1842,1.223289 -1.5776524,1.0986267 -3.2760633,2.870871 -3.2760633,5.418481 0,1.113776 0.297168,2.216334 0.9890199,3.050531 0.7041107,0.848964 1.7714747,1.364211 3.1852804,1.364211 0.03381,0 0.169476,-0.0013 0.304256,-0.09781 0.188005,-0.134832 0.233329,-0.343549 0.213187,-0.493513 -0.01518,-0.11297 -0.06373,-0.190073 -0.07787,-0.212143 -0.02035,-0.03178 -0.03983,-0.05463 -0.04995,-0.066 -0.02066,-0.02322 -0.03901,-0.0395 -0.04558,-0.0453 -0.0088,-0.0077 -0.01609,-0.0137 -0.02051,-0.01719 -0.01376,-0.01101 -0.02731,-0.02063 -0.03143,-0.02355 l -4.75e-4,-3.79e-4 -0.04036,-0.02839 c -0.03011,-0.02134 -0.07312,-0.05249 -0.125348,-0.09335 -0.105299,-0.08244 -0.245738,-0.202817 -0.385163,-0.355914 -0.285893,-0.313964 -0.523425,-0.715257 -0.523425,-1.175428 0,-0.851522 0.484762,-1.64286 1.040109,-2.259885 0.271229,-0.30139 0.54385,-0.543895 0.748863,-0.710974 0.01273,-0.0104 0.02516,-0.02035 0.03732,-0.0301 0.01215,0.0098 0.02459,0.01973 0.03732,0.0301 0.205015,0.167079 0.477633,0.409584 0.748864,0.710974 0.555329,0.617025 1.040109,1.408363 1.040109,2.259885 0,0.463718 -0.2369,0.865231 -0.520862,1.177422 -0.138699,0.15247 -0.278486,0.27209 -0.383263,0.353541 -0.05197,0.04039 -0.09471,0.07091 -0.123829,0.09116 -0.01215,0.0085 -0.02163,0.01498 -0.03029,0.02089 l -0.0063,0.0043 c -0.0037,0.0024 -0.01219,0.0083 -0.02013,0.01396 -0.0024,0.0018 -0.0183,0.01314 -0.0359,0.02811 -0.0056,0.0047 -0.01544,0.01341 -0.02706,0.02478 -0.0083,0.0081 -0.03407,0.03346 -0.06068,0.07103 -0.01393,0.02061 -0.0445,0.07549 -0.05973,0.110345 -0.0191,0.05797 -0.03597,0.215171 -0.02251,0.311758 0.04347,0.117976 0.1934,0.296351 0.286593,0.352495 0.06585,0.02557 0.177739,0.04736 0.221259,0.04919 1.413834,0 2.481289,-0.515154 3.185376,-1.364116 0.69185,-0.834197 0.98902,-1.93685 0.98902,-3.050626 0,-1.330632 -0.46103,-2.169477 -1.071162,-2.809424 C 15.869133,9.7054262 15.555662,9.4535291 15.2746,9.2277 L 15.25238,9.209847 C 14.95629,8.9718513 14.697038,8.7614249 14.475247,8.5229788 13.932354,7.9393178 13.809133,7.4106775 13.800739,7.0510816 c -0.0043,-0.1855359 0.02184,-0.3359516 0.04748,-0.4361564 0.01277,-0.049932 0.02521,-0.086641 0.03314,-0.1080657 0.004,-0.010676 0.0068,-0.01744 0.0079,-0.020037 0.08539,-0.1867524 0.05347,-0.4069745 -0.08224,-0.5616 C 13.702204,5.8057986 13.56937,5.7562214 13.429739,5.7547673 Z" /></g></g></svg>
